<?xml version="1.0" encoding="UTF-8"?><svg id="_레이어_2" xmlns="http://www.w3.org/2000/svg" viewBox="0 0 14.2093776545 18.6098758929"><defs><style>.cls-1{fill:#004e81;}.cls-2{fill:#ecc21a;}</style></defs><g id="_레이어_1-2"><path class="cls-1" d="m8.1663490167,11.7184247852H3.3541625132v6.7873876386H0V0h8.1663490167c2.0782487921,0,3.6048636455.4971119796,4.580200913,1.4902668807.9749809148.9938676065,1.4628277249,2.1132330884,1.4628277249,4.1914818804,0,4.3022458276-2.0144616635,6.036676024-6.0430286379,6.036676024Z"/><g><path class="cls-1" d="m5.6419616902,18.6098758929h-1.8353226356v-6.4658952907h1.8353226356v6.4658952907Zm-1.6272435414-.2080790942h1.4191644472v-6.0497371023h-1.4191644472v6.0497371023Z"/><path class="cls-1" d="m9.9285129522,18.6098758929h-1.6081425308l-.6646745285-2.2342086336v2.2342086336h-1.5687212962v-6.4658952907h1.5402729825l.7325440768,2.2626569473v-2.2626569473h1.5687212962v6.4658952907Zm-1.4528960191-.2080790942h1.2448169249v-6.0497371023h-1.1525631078v3.372953989l-1.0918056379-3.372953989h-1.1810114214v6.0497371023h1.1525631078v-3.4554540986l1.0280001344,3.4554540986Z"/><path class="cls-1" d="m13.4032712637,18.6098758929h-3.0297454049v-6.4658952907h2.9214386108v1.460414502h-1.0859127729v.9786219899h1.0164176067v1.3986410209h-1.0164176067v1.1678032758h1.1942195671v1.460414502Zm-2.8216663107-.2080790942h2.6135872165v-1.0442563136h-1.194219567v-1.5839614642h1.0164176067v-.9824828325h-1.0164176067v-1.3947801784h1.0859127729v-1.0442563136h-2.5052804224v6.0497371023Z"/></g><path class="cls-2" d="m5.6766982531,2.8482180701v6.1630223513h-1.6026560703V2.8482180701h1.6026560703Z"/><path class="cls-2" d="m9.5481073379,2.8482180701v1.2333359983h-.951596092v4.929686353h-1.6026560703v-4.929686353h-.9477352494v-1.2333359983h3.5019874117Z"/></g></svg>