<?xml version="1.0" encoding="UTF-8"?><svg id="_레이어_2" xmlns="http://www.w3.org/2000/svg" viewBox="0 0 14.2094116211 18.6098703361"><defs><style>.cls-1{fill:#fff;}</style></defs><g id="_레이어_1-2"><g><path class="cls-1" d="m5.6419734551,18.6098703361h-1.8353226356v-6.4658952907h1.8353226356v6.4658952907Zm-1.6272435414-.2080790942h1.4191644472v-6.0497371023h-1.4191644472v6.0497371023Z"/><path class="cls-1" d="m9.9285247172,18.6098703361h-1.6081425308l-.6646745285-2.2342086336v2.2342086336h-1.5687212962v-6.4658952907h1.5402729825l.7325440768,2.2626569473v-2.2626569473h1.5687212962v6.4658952907Zm-1.4528960191-.2080790942h1.2448169249v-6.0497371023h-1.1525631078v3.372953989l-1.0918056379-3.372953989h-1.1810114214v6.0497371023h1.1525631078v-3.4554540986l1.0280001344,3.4554540986Z"/><path class="cls-1" d="m13.4032830286,18.6098703361h-3.0297454049v-6.4658952907h2.9214386108v1.460414502h-1.0859127729v.9786219899h1.0164176067v1.3986410209h-1.0164176067v1.1678032758h1.1942195671v1.460414502Zm-2.8216663107-.2080790942h2.6135872165v-1.0442563136h-1.194219567v-1.5839614642h1.0164176067v-.9824828325h-1.0164176067v-1.3947801784h1.0859127729v-1.0442563136h-2.5052804224v6.0497371023Z"/></g><path class="cls-1" d="m12.7465820312,1.490234375c-.9753417969-.9931640625-2.501953125-1.490234375-4.5802001953-1.490234375H0v18.5057983398h3.3541870117v-6.7874145508h4.8121948242c4.0285644531,0,6.0430297852-1.7344360352,6.0430297852-6.0366821289,0-2.0782470703-.4878540039-3.1975708008-1.4628295898-4.1914672852Zm-7.0698852539,7.5209960938h-1.6026611328V2.8482055664h1.6026611328v6.1630249023Zm3.8713989258-4.9296875h-.9515991211v4.9296875h-1.6026000977v-4.9296875h-.9477539062v-1.2333374023h3.501953125v1.2333374023Z"/></g></svg>