<?xml version="1.0" encoding="UTF-8"?><svg id="_레이어_2" xmlns="http://www.w3.org/2000/svg" viewBox="0 0 100 18.6098758929"><defs><style>.cls-1{fill:#fff;}.cls-2{fill:#ecc21a;}</style></defs><g id="_레이어_1-2"><path class="cls-1" d="m8.1663490167,11.7184247852H3.3541625132v6.7873876386H0V0h8.1663490167c2.0782487921,0,3.6048636455.4971119796,4.580200913,1.4902668807.9749809148.9938676065,1.4628277249,2.1132330884,1.4628277249,4.1914818804,0,4.3022458276-2.0144616635,6.036676024-6.0430286379,6.036676024Z"/><g><path class="cls-1" d="m5.6419616902,18.6098758929h-1.8353226356v-6.4658952907h1.8353226356v6.4658952907Zm-1.6272435414-.2080790942h1.4191644472v-6.0497371023h-1.4191644472v6.0497371023Z"/><path class="cls-1" d="m9.9285129522,18.6098758929h-1.6081425308l-.6646745285-2.2342086336v2.2342086336h-1.5687212962v-6.4658952907h1.5402729825l.7325440768,2.2626569473v-2.2626569473h1.5687212962v6.4658952907Zm-1.4528960191-.2080790942h1.2448169249v-6.0497371023h-1.1525631078v3.372953989l-1.0918056379-3.372953989h-1.1810114214v6.0497371023h1.1525631078v-3.4554540986l1.0280001344,3.4554540986Z"/><path class="cls-1" d="m13.4032712637,18.6098758929h-3.0297454049v-6.4658952907h2.9214386108v1.460414502h-1.0859127729v.9786219899h1.0164176067v1.3986410209h-1.0164176067v1.1678032758h1.1942195671v1.460414502Zm-2.8216663107-.2080790942h2.6135872165v-1.0442563136h-1.194219567v-1.5839614642h1.0164176067v-.9824828325h-1.0164176067v-1.3947801784h1.0859127729v-1.0442563136h-2.5052804224v6.0497371023Z"/></g><path class="cls-2" d="m5.6766982531,2.8482180701v6.1630223513h-1.6026560703V2.8482180701h1.6026560703Z"/><path class="cls-2" d="m9.5481073379,2.8482180701v1.2333359983h-.951596092v4.929686353h-1.6026560703v-4.929686353h-.9477352494v-1.2333359983h3.5019874117Z"/><g><path class="cls-1" d="m18.3899546594,15.7359016575h4.6032427127v-2.7730329736h2.1321205633v2.7730329736h4.6032427127v1.7436646283h-11.3386059886v-1.7436646283Zm6.9387642276-9.8631514387v1.786737771c0,.6861790926-.0905333647,1.3294844553-.2716000942,1.9297166752l4.6443217284,2.7160009421-1.0457201865,1.5721697083-4.4676420783-2.6015380536c-.986694028,1.2674671063-2.6071216091,2.1823725631-4.8612827434,2.7447163705l-.8012402192-1.6439582795c1.6296005652-.3525616495,2.8129155131-.9168995838,3.5511413198-1.6938114539.7378269813-.7765130447,1.106740472-1.7891307234,1.106740472-3.0374542107v-1.7725794695h2.1452818014Z"/><path class="cls-1" d="m32.6479625417,5.8157181873v9.7770051533h4.9155229972v1.7440634537h-7.0476435605V5.8157181873h2.1321205633Zm8.3510049524,4.1882648888h1.1817158155v1.7436646283h-1.1817158155v5.7319185814h-2.1317217379V5.5297603789h2.1317217379v4.4742226973Z"/><path class="cls-1" d="m42.2887688225,13.6915226812h11.3386059886v1.7440634537h-4.6032427127v2.4870751651h-2.1317217379v-2.4870751651h-4.6036415381v-1.7440634537Zm.6656395848-7.8187724623h10.0077256445v6.4324553882h-10.0077256445v-6.4324553882Zm2.1317217379,4.6883919346h5.7438833432v-2.9445278936h-5.7438833432v2.9445278936Z"/><path class="cls-1" d="m54.306175634,5.7441290288h7.4010028608v1.1721478368h-3.0825214803v1.1863061383c0,.3051014274-.036293111.6100034421-.1088793329.9149054568l3.3405615111,2.2156744836-.7194810131.9862952026-3.1507206229-2.1014110079c-.3437874908.4765963474-.8008413938.881802949-1.3711617091,1.2152209795s-1.2315728207.6145899342-1.9825610401.8431168857l-.5974404422-1.0433272341c.4614409824-.1236358725.8869876792-.2739930466,1.276241265-.4502738713s.7286539972-.3832712049,1.0186000596-.6217687913c.289547237-.238098761.5156812361-.5192706647.6788008228-.8435157111.1631195867-.323846221.2444799673-.7003373942.2444799673-1.1290746941v-1.1721478368h-2.9469208459v-1.1721478368Zm5.6489628992,12.2355643027c-.7872813303,0-1.5003811372-.0522461268-2.1385017697-.1571372058s-1.1793266939-.2620282847-1.6228205335-.4718104427c-.4434938396-.2093833325-.7852872034-.4738045696-1.0249812659-.7932637113-.240092888-.3190603162-.360139332-.693158537-.360139332-1.121895837s.120046444-.8028355208.360139332-1.1222946624c.2396940626-.3190603162.5814874264-.581088601,1.0249812659-.7860848542.4434938396-.2045974278.984699901-.3593416812,1.6228205335-.4646315855.6381206325-.1044922536,1.3512204393-.1571372057,2.1385017697-.1571372057.7876801557,0,1.5007799625.0526449522,2.138900595.1571372057.6381206325.1052899044,1.1789278685.2600341577,1.6228205335.4646315855.4434938396.2049962532.7852872034.4670245379,1.0249812659.7860848542.240092888.3194591416.3601349221.6935573624.3601349221,1.1222946624s-.1200420341.8028355208-.3601349221,1.121895837c-.2396940626.3194591416-.5814874264.5838803787-1.0249812659.7932637113-.443892665.2097821579-.984699901.3669193637-1.6228205335.4718104427s-1.3512204393.1571372058-2.138900595.1571372058Zm0-1.1717490114c.5794932994,0,1.1023533926-.0287154285,1.5685802798-.0861462854.4662268871-.0570320315.8642546316-.1427794915,1.1948808843-.25724238.3306262527-.1140640631.5838803787-.25724238.7605600289-.4287373s.2648200625-.3717052684.2648200625-.6002322199c0-.2289257769-.0881404124-.4263443476-.2648200625-.5930533628s-.4299337761-.3074943798-.7605600289-.4219572682c-.3306262527-.1140640631-.7286539972-.2002103484-1.1948808843-.25724238s-.9890869804-.08574746-1.5685802798-.08574746c-.579094474,0-1.1019545672.0287154285-1.5681814544.08574746s-.864653457.1431783169-1.1948808843.25724238c-.3306262527.1144628885-.5838803787.255248253-.7605600289.4219572682s-.2648200625.3641275859-.2648200625.5930533628c0,.2285269515.0881404124.4287373.2648200625.6002322199s.4299337761.3146732369.7605600289.4287373c.3302274273.1144628885.7286539972.2002103484,1.1948808843.25724238.4662268871.0574308569.9890869804.0861462854,1.5681814544.0861462854Zm4.8752416323-11.2067941955v7.0901184651h-1.358000471v-3.7595275889l-2.3490815784.5717162042v-1.1721478368l2.3490815784-.5717162042v-2.1584430394h1.358000471Z"/><path class="cls-1" d="m65.8485813997,16.2360287033h4.7799223628v-2.5014328794h-4.1146816034v-7.8474878908h1.358000471v2.8444227193h6.8845239738v-2.8444227193h1.358000471v7.8474878908h-4.1278428415v2.5014328794h4.7934824262v1.1721478368h-10.93140526v-1.1721478368Zm8.9077652042-6.3321508013h-6.8845239738v2.6585700851h6.8845239738v-2.6585700851Z"/><path class="cls-1" d="m83.1213104451,17.2649982232V7.0592557699h-5.4180429953v-1.1721478368h6.7760434663v11.3778902901h-1.358000471Zm4.9290830606.1431783169h-1.358000471V5.6011501246h1.358000471v11.8070264154Z"/><path class="cls-1" d="m89.06859474,10.5471832646h10.93140526v1.1717490114h-4.7934824262v1.0150106311h4.1282416668v3.0733484963h-8.2425244449v.7146951084h8.3781250793v1.1721478368h-9.7361255503v-3.058990782h8.2425244449v-.7290528226h-8.2425244449v-1.1721478368h4.114282778v-1.0150106311h-4.7799223628v-1.1717490114Zm6.3552826743-5.0888126315v.2428846657c0,.4480803316-.0905333647.8720317268-.2716000942,1.272253011l4.3045224916,1.5292959783-.5567602518,1.1151158053-4.5490024589-1.615242851c-.8782135205.7527829336-2.3267473562,1.2866107253-4.3452026819,1.6008851368l-.5160800615-1.1149163926c.8235744413-.1238352852,1.527501264-.276385999,2.1113816428-.4574527284.5842792041-.1808673168,1.0568872976-.3906494747,1.4190207565-.6289476484.3621334589-.238098761.6269535214-.5003264584.7944601875-.7860848542.167506666-.2859578084.251259999-.5954463152.251259999-.9292631711v-.2285269515h1.358000471Z"/></g><g><path class="cls-1" d="m22.7606821666,2.6109567233c-.1571372058.1515536502-.3964324429.2273304753-.7178857116.2273304753h-.5300389504v1.1512095036h-.360139332V1.2322173317h.8901782823c.3110838083,0,.5475872678.075178587.7099092037.225535761s.2432834911.3441863162.2432834911.5814874264c0,.229524015-.0785686029.4199631413-.2353069832.5717162042Zm-.2747906974-.199811523c.0949204441-.0871433489.1423806661-.2109786341.1423806661-.3719046811,0-.3401980622-.1954244437-.5102970933-.5854756803-.5102970933h-.5300389504v1.0126176787h.5300389504c.2002103484,0,.3481745701-.0434719681.4430950142-.1304159043Z"/><path class="cls-1" d="m23.2177360696,1.3983281089c-.047460222-.047460222-.0713897458-.1052899044-.0713897458-.1738878724s.0239295237-.126627063.0713897458-.1740872851.1052899044-.0711903331.1738878724-.0711903331c.0658061902,0,.122040571.023730111.1683043168.0711903331.0458649205.047460222.0689967934.1054893171.0689967934.1740872851s-.0231318729.1264276503-.0689967934.1738878724c-.0462637459.047460222-.1024981266.0713897458-.1683043168.0713897458-.068597968,0-.1264276503-.0239295237-.1738878724-.0713897458Zm.3481745701.4233531571v2.1678154362h-.360139332V1.821681266h.360139332Z"/><path class="cls-1" d="m25.6386062192,2.021492789c.1635184121.1595301581.2452776181.3896524112.2452776181.6901673466v1.2778365666h-.356151078v-1.2263880906c0-.2161633643-.0542402538-.3816759033-.1623219359-.4963382045-.1080816821-.1148617138-.2556470784-.1720931581-.4430950142-.1720931581-.1898408882,0-.3405968876.0592255712-.4526668237.178075539-.1120699361.1186505551-.1683043168.2913419513-.1683043168.5180741885v1.1986697256h-.360139332V1.821681266h.360139332v.3084914433c.0713897458-.1106740472.1683043168-.1964215072.2907437132-.2570429673.1228382218-.0606214601.2576412054-.0909321901.405605427-.0909321901.2636235863,0,.4773939982.0797650791.6409124103.2392952372Z"/><path class="cls-1" d="m28.2018570348,3.0400928487h-1.7324975172c.013161238.2135709992.0861462854.3804794271.2193539674.5003264584.133207682.120046444.2947319671.180069666.4845728553.180069666.1555419042,0,.285558983-.036293111.3896524112-.1086799202.1040934282-.0725862219.1774773009-.169500793.2197527928-.2909431259h.3876582842c-.0582285077.208386269-.1742866978.3778870621-.3481745701.508502379-.1742866978.1304159043-.390450062.1958232691-.6488889182.1958232691-.205793904,0-.3896524112-.0462637459-.5515755217-.1385918249-.1623219359-.092328079-.289547237-.2235416341-.3820747287-.3936406652-.0921286663-.1700990311-.1383924122-.3671187764-.1383924122-.5912586485s.0450672697-.4207607921.1344041582-.5894639343c.0897357139-.1687031422.2157645389-.2987202211.3780864748-.3896524112.1619231105-.0909321901.3485733955-.1363982852.5595520296-.1363982852.205793904,0,.3876582842.044867857.5459919662.1344041582.1583336819.0897357139.2803742529.2129727611.3661217129.3699105542.0853486346.1569377931.1284217773.3342156813.1284217773.5320330773,0,.068597968-.003988254.1411841899-.0119647619.2175592531Zm-.4510715221-.6466953785c-.0606214601-.098908698-.1427794915-.1740872851-.2472717451-.225535761-.1040934282-.051448476-.2193539674-.077172714-.3457816177-.077172714-.1822632057,0-.337007459.058029095-.4650304109.1740872851s-.2010079992.2767848243-.2193539674.4825787283h1.3687687567c0-.1369965233-.0307095554-.2550488403-.0913310155-.3539575383Z"/><path class="cls-1" d="m29.6300507754,1.2322173317v2.7572793705h-.360139332V1.2322173317h.360139332Z"/><path class="cls-1" d="m31.7027463548,2.021492789c.1635184121.1595301581.2452776181.3896524112.2452776181.6901673466v1.2778365666h-.356151078v-1.2263880906c0-.2161633643-.0542402538-.3816759033-.1623219359-.4963382045-.1080816821-.1148617138-.2556470784-.1720931581-.4430950142-.1720931581-.1898444314,0-.3405968876.0592255712-.4526668237.178075539-.1120699361.1186505551-.1683043168.2913419513-.1683043168.5180741885v1.1986697256h-.360139332V1.821681266h.360139332v.3084914433c.0713897458-.1106740472.1683043168-.1964215072.2907437132-.2570429673.1228382218-.0606214601.2576412054-.0909321901.405605427-.0909321901.2636235863,0,.4773939982.0797650791.6409124103.2392952372Z"/><path class="cls-1" d="m33.181989746,2.1184073601h-.4546609507v1.8710893421h-.360139332v-1.8710893421h-.2807730783v-.2967260941h.2807730783v-.154345428c0-.2424858403.0626155871-.4197637286.1878467612-.5320330773.1252311741-.1120699361.3266379988-.1681049041.6034228231-.1681049041v.3007143481c-.1583336819,0-.2696059672.0309089681-.3342156813.0929263171s-.0969145711.1641166502-.0969145711.3064973163v.154345428h.4546609507v.2967260941Z"/><path class="cls-1" d="m33.7574911734,3.8865997502c-.1647112702-.092328079-.2939306983-.2235416341-.3876546662-.3936406652-.0933251425-.1700990311-.1403865391-.3671187764-.1403865391-.5912586485,0-.2215475071.0482578728-.4173707762.1443747931-.5874698073.0965157457-.1700990311.2277293007-.3007143481.3936406652-.3916465382.1663101898-.0909321901.3521628241-.1363982852.557956728-.1363982852s.3916465382.0454660951.5575579026.1363982852c.1663101898.0909321901.2975237449.220949269.3936406652.3896524112.0965157457.1687031422.1443747931.3653240621.1443747931.5894639343s-.049454349.4211596174-.1483630471.5912586485-.2325152055.3013125862-.4012183477.3936406652c-.1691019676.092328079-.356151078.1385918249-.561944982.1385918249-.2030021262,0-.3868606335-.0462637459-.5519779651-.1385918249Zm.9161055511-.2690077291c.1132664123-.0606214601.2049962532-.1515536502.2747906974-.2729959831.0697944442-.1212429202.104891079-.2688083164.104891079-.4428956015s-.034298984-.321852094-.102896952-.4430950142-.1583336819-.2115768722-.2692071418-.2710018561c-.1104746345-.0594249839-.2305210785-.0889380632-.3597405066-.0889380632-.1320112058,0-.2524564752.0295130793-.3621334589.0889380632-.1092781583.0594249839-.1970197453.1497589359-.2628259355.2710018561-.0662050156.1212429202-.098908698.2690077291-.098908698.4430950142,0,.1766796501.032304857.3256409353.0969145711.4468838554.064609714.1214423329.1507559994.2117762849.2588376816.2710018561.1080816821.0594249839.2269316499.0891374759.356151078.0891374759s.2504623483-.03031073.3641275859-.0911316028Z"/><path class="cls-1" d="m36.2896372263,1.8848950911c.1172546662-.0683985553.2600341577-.1026975393.4291361254-.1026975393v.3717052684h-.0949204441c-.4036113001,0-.6054169501.218955142-.6054169501.6566660134v1.1789278685h-.360139332V1.821681266h.360139332v.3521628241c.0634132379-.1240346979.1535477772-.2201516182.2712012688-.2889489989Z"/><path class="cls-1" d="m39.9544437838,1.8868892181c.1320112058.0699938569.236104634.1748849358.3126791099.3144738242.0761756505.1399877138.1144628885.3100867449.1144628885.5102970933v1.2778365666h-.3557522526v-1.2263880906c0-.2161633643-.053442603-.3816759033-.1603278089-.4963382045-.1068852059-.1148617138-.251259999-.1720931581-.4331243793-.1720931581-.1874479358,0-.3362098082.060023222-.4470832681.1798702533-.1108734599.120046444-.1659113644.2935354909-.1659113644.5202677282v1.1946814716h-.356151078v-1.2263880906c0-.2161633643-.053442603-.3816759033-.1603278089-.4963382045-.1068852059-.1148617138-.251259999-.1720931581-.4331243793-.1720931581-.1874479358,0-.3362098082.060023222-.4470832681.1798702533-.1108734599.120046444-.1659113644.2935354909-.1659113644.5202677282v1.1946814716h-.360139332V1.821681266h.360139332v.3124796972c.0709909204-.1132664123.1667090152-.2004097611.2867554592-.2610312212s.2524564752-.0909321901.3976289191-.0909321901c.1818643803,0,.3425910146.040879603.4825787283.1226388091.1395888884.081759206.2436823165.2016062373.3122802845.3599399193.0606214601-.1529495391.1607266343-.2716000942.3007143481-.356151078.1395888884-.0843515711.2955296179-.1264276503.4666257125-.1264276503.1691019676,0,.3190603162.0348972221.4510715221.1046916663Z"/><path class="cls-1" d="m40.7337486062,2.3142306292c.0897357139-.167506666.2129727611-.2973243322.3697111415-.3896524112.1571372058-.092328079.3318227289-.1383924122.5244553948-.1383924122.1898408882,0,.3545557764.040879603.4941446648.1224393964.1399877138.0819586187.2440811419.184656158.3126791099.308690856v-.3956347921h.3641275859v2.1678154362h-.3641275859v-.4034118874c-.0709909204.1264276503-.1774773009.2313187293-.3182626655.3144738242-.1411841899.0829556822-.3055002528.124632936-.4925493632.124632936-.1926326659,0-.3665205383-.0476596347-.5224612679-.1425800788-.1555419042-.0949204441-.2779813005-.2279287134-.3677170145-.3994236334s-.1344041582-.3665205383-.1344041582-.5854756803c0-.2215475071.0446684443-.4159748873.1344041582-.5834815533Zm1.602081613.1601283962c-.0658061902-.1212429202-.1547442534-.2141692373-.2668141895-.2787789513-.1124687615-.064609714-.2357058086-.0969145711-.3701099668-.0969145711s-.25724238.0315072062-.3677170145.0949204441c-.1108734599.0632138252-.1994126977.1555419042-.2652188879.2767848243-.0658061902.1214423329-.098908698.263822999-.098908698.4273414111,0,.1661107771.0331025078.3104855702.098908698.4331243793s.154345428.216362777.2652188879.280972491c.1104746345.064609714.2333128563.0969145711.3677170145.0969145711s.2576412054-.032304857.3701099668-.0969145711c.1120699361-.064609714.2010079992-.1583336819.2668141895-.280972491s.098908698-.2656177133.098908698-.4291361254-.0331025078-.3058990782-.098908698-.4273414111Z"/><path class="cls-1" d="m43.6096785318,2.1184073601v1.2776371539c0,.1054893171.0223342221.180069666.0674014918.2235416341.0446684443.0434719681.1224393964.0654073648.2333128563.0654073648h.2648200625v.3045031893h-.3242450464c-.2006091738,0-.3505675225-.0460643332-.4510715221-.1383924122-.1001051742-.092328079-.150357174-.2438817292-.150357174-.455059776v-1.2776371539h-.2807730783v-.2967260941h.2807730783v-.5459919662h.360139332v.5459919662h.5655344106v.2967260941h-.5655344106Z"/><path class="cls-1" d="m44.3849951003,1.3983281089c-.047460222-.047460222-.0709909204-.1052899044-.0709909204-.1738878724s.0235306983-.126627063.0709909204-.1740872851.1056887298-.0711903331.1742866977-.0711903331c.0658061902,0,.1216417456.023730111.1679054914.0711903331s.0693956188.1054893171.0693956188.1740872851-.0231318729.1264276503-.0693956188.1738878724-.1020993012.0713897458-.1679054914.0713897458c-.068597968,0-.1268264757-.0239295237-.1742866977-.0713897458Zm.3481706748.4233531571v2.1678154362h-.3601354367V1.821681266h.3601354367Z"/><path class="cls-1" d="m45.5025038579,3.8865997502c-.1647148883-.092328079-.2939343163-.2235416341-.3876582842-.3936406652s-.1403865391-.3671187764-.1403865391-.5912586485c0-.2215475071.0478590474-.4173707762.1443747931-.5874698073.0961169203-.1700990311.2273304753-.3007143481.3936406652-.3916465382.1659113644-.0909321901.3517639987-.1363982852.5575579026-.1363982852s.3916465382.0454660951.557956728.1363982852c.1659113644.0909321901.2971249195.220949269.3936406652.3896524112.0961169203.1687031422.1443747931.3653240621.1443747931.5894639343s-.049454349.4211596174-.1483630471.5912586485-.2329140309.3013125862-.4016171731.3936406652-.356151078.1385918249-.5615461566.1385918249c-.2034009516,0-.3872594588-.0462637459-.5519743471-.1385918249Zm.9157031076-.2690077291c.1132664123-.0606214601.2049962532-.1515536502.2747906974-.2729959831.0701932696-.1212429202.104891079-.2688083164.104891079-.4428956015s-.034298984-.321852094-.102896952-.4430950142-.1579348565-.2115768722-.2688083164-.2710018561-.2309199039-.0889380632-.360139332-.0889380632c-.1316123805,0-.2524564752.0295130793-.3617346335.0889380632-.1096769837.0594249839-.1974185707.1497589359-.2632247609.2710018561s-.098908698.2690077291-.098908698.4430950142c0,.1766796501.032304857.3256409353.0969145711.4468838554.064609714.1214423329.1511548248.2117762849.259236507.2710018561.1080816821.0594249839.2269316499.0891374759.356151078.0891374759.1288206027,0,.2504623483-.03031073.3637287605-.0911316028Z"/><path class="cls-1" d="m49.100307749,2.021492789c.1635184121.1595301581.2452776181.3896524112.2452776181.6901673466v1.2778365666h-.356151078v-1.2263880906c0-.2161633643-.0538414284-.3816759033-.1619231105-.4963382045-.1080816821-.1148617138-.2560459038-.1720931581-.4430950142-.1720931581-.1898408882,0-.340995713.0592255712-.4530656491.178075539-.1120699361.1186505551-.1679054914.2913419513-.1679054914.5180741885v1.1986697256h-.360139332V1.821681266h.360139332v.3084914433c.0709909204-.1106740472.1679054914-.1964215072.2907437132-.2570429673.1224393964-.0606214601.2576412054-.0909321901.4052066016-.0909321901.2636235863,0,.4773939982.0797650791.6409124103.2392952372Z"/><path class="cls-1" d="m52.2135387848,1.2322173317v.2927378402h-.7513870448v2.4645415303h-.360139332V1.5249551719h-.7557741241v-.2927378402h1.8673005008Z"/><path class="cls-1" d="m54.3851430623,3.0400928487h-1.7324975172c.013161238.2135709992.0861462854.3804794271.2193539674.5003264584.133207682.120046444.2947319671.180069666.4845728553.180069666.1555419042,0,.285558983-.036293111.3896524112-.1086799202.1040934282-.0725862219.1774773009-.169500793.2197527928-.2909431259h.3876582842c-.0582285077.208386269-.1742866977.3778870621-.3481745701.508502379-.1742866978.1304159043-.390450062.1958232691-.6488889182.1958232691-.205793904,0-.3896524112-.0462637459-.5515755217-.1385918249-.1623219359-.092328079-.289547237-.2235416341-.3820747287-.3936406652-.0921286663-.1700990311-.1383924122-.3671187764-.1383924122-.5912586485s.0450672697-.4207607921.1344041582-.5894639343c.0897357139-.1687031422.2157645389-.2987202211.3780864748-.3896524112.1619231105-.0909321901.3485733955-.1363982852.5595520296-.1363982852.205793904,0,.3876582842.044867857.5459919662.1344041582.1583336819.0897357139.2803742529.2129727611.3661217129.3699105542.0853486346.1569377931.1284217773.3342156813.1284217773.5320330773,0,.068597968-.003988254.1411841899-.0119647619.2175592531Zm-.4510715221-.6466953785c-.0606214601-.098908698-.1427794915-.1740872851-.2472717451-.225535761-.1040934282-.051448476-.2193539674-.077172714-.3457816177-.077172714-.1822632057,0-.337007459.058029095-.4650304109.1740872851-.1280270497.11605819-.2010079992.2767848243-.2193539674.4825787283h1.3687687567c0-.1369965233-.0307095554-.2550488403-.0913310155-.3539575383Z"/><path class="cls-1" d="m54.6344089343,2.3142306292c.0897357139-.167506666.2141692373-.2973243322.3736993954-.3896524112s.3421921892-.1383924122.5479860932-.1383924122c.2664153641,0,.4857693315.064609714.6588595531.1938291421.1726913962.1292194281.2867554592.3084914433.3421921892.5378160456h-.3880571096c-.0366919364-.1318117931-.1084805075-.2359052213-.2153657135-.3124796972-.1068852059-.0763750632-.2392952372-.1146623012-.3976289191-.1146623012-.205793904,0-.3717052684.070592095-.4985317441.2115768722-.1264276503.1411841899-.1898408882.340995713-.1898408882.5994345692,0,.2610312212.0634132379.4628368713.1898408882.6052175374.1268264757.1423806661.2927378402.2135709992.4985317441.2135709992.1583336819,0,.2899460624-.0368913491.3956347921-.1106740472.1052899044-.0737826981.1778761263-.1794714279.2173598404-.3164679512h.3880571096c-.0582285077.2213480944-.1742866977.3988253953-.3481745701.5320330773-.1742866977.133207682-.3916465382.1998115231-.6528771721.1998115231-.205793904,0-.388455935-.0462637459-.5479860932-.1385918249s-.2839636815-.2227439833-.3736993954-.3916465382c-.0897357139-.1687031422-.1344041582-.3665205383-.1344041582-.5932527755,0-.2241398722.0446684443-.4199631413.1344041582-.5874698073Z"/><path class="cls-1" d="m58.3171626346,1.8868892181c.1320112058.0699938569.2353069832.1748849358.3106849829.3144738242.0749791743.1399877138.1128675869.3100867449.1128675869.5102970933v1.2778365666h-.356151078v-1.2263880906c0-.2161633643-.0542402538-.3816759033-.1623219359-.4963382045-.1080816821-.1148617138-.2556470784-.1720931581-.4430950142-.1720931581-.1898408882,0-.3405968876.0592255712-.4526668237.178075539-.1120699361.1186505551-.1683043168.2913419513-.1683043168.5180741885v1.1986697256h-.360139332V1.0621183006h.360139332v1.0680544086c.0713897458-.1106740472.169500793-.1964215072.2947319671-.2570429673s.2656177133-.0909321901.4211596174-.0909321901c.1635184121,0,.3114826337.0348972221.4430950142.1046916663Z"/><path class="cls-1" d="m60.7898800855,2.021492789c.1635184121.1595301581.2452776181.3896524112.2452776181.6901673466v1.2778365666h-.356151078v-1.2263880906c0-.2161633643-.0542402538-.3816759033-.1623219359-.4963382045-.1080816821-.1148617138-.2556470784-.1720931581-.4430950142-.1720931581-.1898408882,0-.3405968876.0592255712-.4526668237.178075539-.1120699361.1186505551-.1683043168.2913419513-.1683043168.5180741885v1.1986697256h-.360139332V1.821681266h.360139332v.3084914433c.0713897458-.1106740472.1683043168-.1964215072.2907437132-.2570429673.1228382218-.0606214601.2576412054-.0909321901.405605427-.0909321901.2636235863,0,.4773939982.0797650791.6409124103.2392952372Z"/><path class="cls-1" d="m61.7805623675,3.8865997502c-.1647148883-.092328079-.2939343163-.2235416341-.3876582842-.3936406652-.0933251425-.1700990311-.1403865391-.3671187764-.1403865391-.5912586485,0-.2215475071.0482578728-.4173707762.1443747931-.5874698073.0965157457-.1700990311.2277293007-.3007143481.3936406652-.3916465382.1663101898-.0909321901.3521628241-.1363982852.557956728-.1363982852s.3916465382.0454660951.5575579026.1363982852c.1663101898.0909321901.2975237449.220949269.3936406652.3896524112.0965157457.1687031422.1443747931.3653240621.1443747931.5894639343s-.049454349.4211596174-.1483630471.5912586485-.2325152055.3013125862-.4012183477.3936406652c-.1691019676.092328079-.356151078.1385918249-.561944982.1385918249-.2030021262,0-.3868606334-.0462637459-.5519743471-.1385918249Zm.916101933-.2690077291c.1132664123-.0606214601.2049962532-.1515536502.2747906974-.2729959831.0697944442-.1212429202.104891079-.2688083164.104891079-.4428956015s-.034298984-.321852094-.102896952-.4430950142-.1583336819-.2115768722-.2692071418-.2710018561c-.1104746345-.0594249839-.2305210785-.0889380632-.3597405066-.0889380632-.1320112058,0-.2524564752.0295130793-.3621334589.0889380632-.1092781583.0594249839-.1970197453.1497589359-.2628259355.2710018561-.0662050156.1212429202-.098908698.2690077291-.098908698.4430950142,0,.1766796501.032304857.3256409353.0969145711.4468838554.064609714.1214423329.1507559994.2117762849.2588376816.2710018561.1080816821.0594249839.2269316499.0891374759.356151078.0891374759s.2504623483-.03031073.3641275859-.0911316028Z"/><path class="cls-1" d="m64.0415035335,1.0621183006v2.9273784016h-.360139332V1.0621183006h.360139332Z"/><path class="cls-1" d="m64.8108377211,3.8865997502c-.1647148883-.092328079-.2939343163-.2235416341-.3876582842-.3936406652s-.1403865391-.3671187764-.1403865391-.5912586485c0-.2215475071.0478590474-.4173707762.1443747931-.5874698073.0961169203-.1700990311.2273304753-.3007143481.3936406652-.3916465382.1659113644-.0909321901.3517639987-.1363982852.5575579026-.1363982852s.3916465382.0454660951.557956728.1363982852c.1659113644.0909321901.2971249195.220949269.3936406652.3896524112.0961169203.1687031422.1443747931.3653240621.1443747931.5894639343s-.049454349.4211596174-.1483630471.5912586485-.2329140309.3013125862-.4016171731.3936406652-.356151078.1385918249-.5615461566.1385918249c-.2034009516,0-.3872594588-.0462637459-.5519743471-.1385918249Zm.9157031076-.2690077291c.1132664123-.0606214601.2049962532-.1515536502.2747906974-.2729959831.0701932696-.1212429202.104891079-.2688083164.104891079-.4428956015s-.0343034184-.321852094-.102896952-.4430950142c-.068597968-.1212429202-.1579348565-.2115768722-.2688083164-.2710018561s-.2309199039-.0889380632-.360139332-.0889380632c-.1316123804,0-.2524564752.0295130793-.3617346335.0889380632-.1096769837.0594249839-.1974185707.1497589359-.2632247609.2710018561s-.098908698.2690077291-.098908698.4430950142c0,.1766796501.032304857.3256409353.0969145711.4468838554.064609714.1214423329.1511548248.2117762849.259236507.2710018561.1080816821.0594249839.2269316499.0891374759.356151078.0891374759.1288206027,0,.2504623483-.03031073.3637287605-.0911316028Z"/><path class="cls-1" d="m68.0983554546,1.9086252022c.1407853645.0819586187.2456764435.184656158.3142744115.308690856v-.3956347921h.3641275859v2.2152756582c0,.1978173961-.0422754919.3738988081-.1268264757.5280448234-.0845509838.154345428-.2049962532.2749901101-.3617346335.3619340462-.1571372058.0871433489-.3397992368.130615317-.5479860932.130615317-.2847613323,0-.5220624425-.0672020791-.712302156-.20180565-.1898408882-.1344041582-.3019108242-.3176644274-.3362098082-.5497808074h.356151078c.0394837141.1318117931.1212429202.2378993483.2452776181.3184620782.1240346979.0803633172.2727965704.1206446821.4470832681.1206446821.1978173961,0,.3593416812-.062017349.4845728553-.1858526342.1252311741-.1240346979.1878467612-.298121983.1878467612-.5222618552v-.4548603634c-.0709909204.126627063-.1766796501.2321163801-.3162685385.3164679512-.1399877138.0843515711-.3035061258.126627063-.4905552362.126627063-.1926326659,0-.3673181891-.0476596347-.5244553948-.1425800788-.1567383804-.0949204441-.2799754275-.2279287134-.3697111415-.3994236334s-.1344041582-.3665205383-.1344041582-.5854756803c0-.2215475071.0446684443-.4159748873.1344041582-.5834815533s.2129727611-.2973243322.3697111415-.3896524112c.1571372058-.092328079.3318227289-.1383924122.5244553948-.1383924122.1870491104,0,.3513651733.040879603.4925493632.1224393964Zm.2153657135.5657338232c-.0658061902-.1212429202-.1547442534-.2141692373-.2668141895-.2787789513-.1124687615-.064609714-.2357058086-.0969145711-.3701099668-.0969145711s-.25724238.0315072062-.3677170145.0949204441c-.1108734599.0632138252-.1994126977.1555419042-.2652188879.2767848243-.0658061902.1214423329-.098908698.263822999-.098908698.4273414111,0,.1661107771.0331025078.3104855702.098908698.4331243793s.154345428.216362777.2652188879.280972491c.1104746345.064609714.2333128563.0969145711.3677170145.0969145711s.2576412054-.032304857.3701099668-.0969145711c.1120699361-.064609714.2010079992-.1583336819.2668141895-.280972491s.098908698-.2656177133.098908698-.4291361254-.0331025078-.3058990782-.098908698-.4273414111Z"/><path class="cls-1" d="m71.0153643959,1.821681266l-1.3053555188,3.1884096228h-.3717052684l.4271419984-1.0443242976-.8742252665-2.1440853252h.3996230461l.6803961244,1.7564270409.6724196165-1.7564270409h.3717052684Z"/><path class="cls-1" d="m72.0044513763,1.8831003769c.1212429202-.2149668881.2867554592-.3830717922.4965376172-.5045141251.2097821579-.1212429202.4422973634-.1818643803.6979444418-.1818643803.3007143481,0,.5631414582.0725862219.7872813303.2175592531s.3876582842.3507669352.4905552362.6169828865h-.4311302523c-.0765744759-.1661107771-.186650285-.2939343163-.3302274273-.3836700303-.1439759677-.0895363012-.3158697131-.1344041582-.5164788869-.1344041582-.1922338405,0-.3649252367.044867857-.5180741885.1344041582-.1527501264.0897357139-.2727965704.216961015-.3597405066.381875316-.0873427616.1647148883-.1308147297.3579457923-.1308147297.5794932994,0,.218955142.0434719681.4107901572.1308147297.5755050454.0869439362.164914301.2069903802.2921396021.3597405066.3816759033.1531489518.0897357139.325840348.1346035709.5180741885.1346035709.2006091738,0,.3725029192-.0440702062.5164788869-.1326094439.1435771423-.0883398251.2536529514-.2155651262.3302274273-.3816759033h.4311302523c-.102896952.263822999-.2664153641.4674233633-.4905552362.6111999183s-.4865669823.2155651262-.7872813303.2155651262c-.2556470784,0-.4881622839-.060023222-.6979444418-.180069666-.2097821579-.1198470313-.375294697-.2867554592-.4965376172-.5003264584s-.1818643803-.4548603634-.1818643803-.7238680925.0606214601-.5108953314.1818643803-.7258622195Z"/><path class="cls-1" d="m75.1671367611,3.8865997502c-.1647148883-.092328079-.2939343163-.2235416341-.3876582842-.3936406652s-.1403865391-.3671187764-.1403865391-.5912586485c0-.2215475071.0478590474-.4173707762.1443747931-.5874698073.0961169203-.1700990311.2273304753-.3007143481.3936406652-.3916465382.1659113644-.0909321901.3517639987-.1363982852.5575579026-.1363982852s.3916465382.0454660951.557956728.1363982852c.1659113644.0909321901.2971249195.220949269.3936406652.3896524112.0961169203.1687031422.1443747931.3653240621.1443747931.5894639343s-.049454349.4211596174-.1483630471.5912586485-.2329140309.3013125862-.4016171731.3936406652-.3561557613.1385918249-.5615461566.1385918249c-.2034009516,0-.3872594588-.0462637459-.5519743471-.1385918249Zm.9157031076-.2690077291c.1132664123-.0606214601.2049962532-.1515536502.2747906974-.2729959831.0701932696-.1212429202.104891079-.2688083164.104891079-.4428956015s-.034298984-.321852094-.102896952-.4430950142-.1579348565-.2115768722-.2688083164-.2710018561-.2309199039-.0889380632-.360139332-.0889380632c-.1316123805,0-.2524564752.0295130793-.3617346335.0889380632-.1096769837.0594249839-.1974185707.1497589359-.2632247609.2710018561s-.098908698.2690077291-.098908698.4430950142c0,.1766796501.032304857.3256409353.0969145711.4468838554.064609714.1214423329.1511548248.2117762849.2592318379.2710018561.1080863512.0594249839.226936319.0891374759.3561557471.0891374759.1288206027,0,.2504623483-.03031073.3637287605-.0911316028Z"/><path class="cls-1" d="m77.0085136112,3.9420364801c-.047460222-.047460222-.0713897458-.1054893171-.0713897458-.1740872851s.0239295237-.126627063.0713897458-.1740872851.1052899044-.0711903331.1738878724-.0711903331c.0658061902,0,.122040571.023730111.1683043168.0711903331.0458649205.047460222.0689967934.1054893171.0689967934.1740872851s-.0231318729.126627063-.0689967934.1740872851c-.0462637459.047460222-.1024981266.0711903331-.1683043168.0711903331-.068597968,0-.1264276503-.023730111-.1738878724-.0711903331Z"/><path class="cls-1" d="m78.0330960517,3.490964958l-.4430950142,1.0642655674h-.2412893642l.2887495862-1.0642655674h.3956347921Z"/><path class="cls-1" d="m79.3859117926,3.696758862h.9651574567v.2927378402h-1.3252967886V1.2322173317h.360139332v2.4645415303Z"/><path class="cls-1" d="m80.9365449296,2.1184073601v1.2776371539c0,.1054893171.0223342221.180069666.0674014918.2235416341.0446684443.0434719681.1224393964.0654073648.2333128563.0654073648h.2648200625v.3045031893h-.3242450464c-.2006091738,0-.3505675225-.0460643332-.4510715221-.1383924122-.1001051742-.092328079-.150357174-.2438817292-.150357174-.455059776v-1.2776371539h-.2807730783v-.2967260941h.2807730783v-.5459919662h.360139332v.5459919662h.5655344105v.2967260941h-.5655344105Z"/><path class="cls-1" d="m81.6998967362,2.3142306292c.0897357139-.167506666.2129727611-.2973243322.3701099668-.3896524112.1567383804-.092328079.3330192051-.1383924122.5280448234-.1383924122.1687031422,0,.325840348.038885476.4706139665.1166564281.1451724439.0777709521.2560459038.1798702533.3326203797.3064973163v-1.1472212496h.3637287605v2.9273784016h-.3637287605v-.4074001413c-.0713897458.1292194281-.1770784755.2353069832-.3166673639.3184620782-.1399877138.0829556822-.3031073004.124632936-.4905552362.124632936-.1926326659,0-.3673181891-.0476596347-.5240565694-.1425800788-.1571372058-.0949204441-.2803742529-.2279287134-.3701099668-.3994236334-.0893368885-.17149492-.1344041582-.3665205383-.1344041582-.5854756803,0-.2215475071.0450672697-.4159748873.1344041582-.5834815533Zm1.6024804384.1601283962c-.0662050156-.1212429202-.1551430788-.2141692373-.2672130149-.2787789513s-.2353069832-.0969145711-.3697111415-.0969145711c-.1348029836,0-.25724238.0315072062-.3681158399.0949204441-.1104746345.0632138252-.1990138723.1555419042-.2648200625.2767848243-.0662050156.1214423329-.098908698.263822999-.098908698.4273414111,0,.1661107771.0327036824.3104855702.098908698.4331243793.0658061902.1226388091.154345428.216362777.2648200625.280972491.1108734599.064609714.2333128563.0969145711.3681158399.0969145711.1344041582,0,.2576412054-.032304857.3697111415-.0969145711s.2010079992-.1583336819.2672130149-.280972491c.0658061902-.1226388091.098908698-.2656177133.098908698-.4291361254s-.0331025078-.3058990782-.098908698-.4273414111Z"/></g></g></svg>